<svg xmlns="http://www.w3.org/2000/svg" class="svg-twitter-avatar" viewBox="65.00000000000001 196.29927113231054 77.40145773537888 77.40145773537893" preserveAspectRatio="xMidYMid meet"><g data-paper-data="{&quot;fillRule&quot;:&quot;evenodd&quot;,&quot;fillRuleOriginal&quot;:&quot;evenodd&quot;,&quot;isIcon&quot;:true,&quot;iconStyle&quot;:&quot;standalone&quot;,&quot;selectedEffects&quot;:{&quot;container&quot;:&quot;&quot;,&quot;transformation&quot;:&quot;&quot;,&quot;pattern&quot;:&quot;&quot;},&quot;bounds&quot;:{&quot;x&quot;:65.00000000000001,&quot;y&quot;:196.29927113231054,&quot;width&quot;:77.40145773537888,&quot;height&quot;:77.40145773537893},&quot;iconType&quot;:&quot;icon&quot;,&quot;rawIconId&quot;:&quot;1574636&quot;,&quot;isDetailed&quot;:false,&quot;suitableAsStandaloneIcon&quot;:true}" fill-rule="evenodd" style="fill: rgb(0, 87, 118);"><path d="M82.73751,261.60675c0,6.66814 5.42294,12.09398 12.09108,12.09398c6.67104,0 12.09688,-5.42584 12.09688,-12.09398v-5.64353h23.38201c6.66814,0 12.09398,-5.42681 12.09398,-12.09398c0,-6.67104 -5.42584,-12.09398 -12.09398,-12.09398h-23.38201v-11.28804h5.6445c6.66717,0 12.09398,-5.42294 12.09398,-12.09398c0,-6.67104 -5.42681,-12.09398 -12.09398,-12.09398c-6.67104,0 -12.09398,5.42971 -12.09398,12.09398v5.64353h-23.38201c-6.67104,0 -12.09398,5.42294 -12.09398,12.09398c0,6.67104 5.42294,12.09398 12.09398,12.09398h23.38201v11.28804h-5.6445c-6.67104,0.0029 -12.09398,5.42971 -12.09398,12.09398zM112.56997,214.03678h-5.6445v-5.64353c0,-3.11154 2.532,-5.64353 5.6445,-5.64353c3.11154,0 5.64353,2.532 5.64353,5.64353c0,3.11154 -2.532,5.64353 -5.64353,5.64353zM71.45044,226.13076c0,-3.11154 2.532,-5.64353 5.64353,-5.64353h23.38201v11.28804h-23.38201c-3.11154,0 -5.64353,-2.532 -5.64353,-5.6445zM130.30748,249.51277h-23.38201v-11.28804h23.38201c3.11154,0 5.64353,2.532 5.64353,5.6445c0,3.11154 -2.532,5.64353 -5.64353,5.64353zM89.18796,261.60675c0,-3.10864 2.532,-5.64063 5.64353,-5.64353h5.6445v5.64353c0,3.11154 -2.532,5.64353 -5.6474,5.64353c-3.11154,0 -5.64063,-2.532 -5.64063,-5.64353z" data-paper-data="{&quot;isPathIcon&quot;:true}" style="fill: rgb(0, 87, 118);"/></g></svg>