<svg xmlns:mydata="http://www.w3.org/2000/svg" mydata:contrastcolor="005776" mydata:template="Contrast" mydata:presentation="2.5" mydata:layouttype="undefined" mydata:specialfontid="undefined" mydata:id1="807" mydata:id2="220" mydata:companyname="Rastrear" mydata:companytagline="Controle de Frotas" version="1.1" xmlns="http://www.w3.org/2000/svg" xmlns:xlink="http://www.w3.org/1999/xlink" viewBox="0 0 550 470" class="svg-drawing"><g fill="currentColor" fill-rule="none" stroke="none" stroke-width="1" stroke-linecap="butt" stroke-linejoin="miter" stroke-miterlimit="10" stroke-dasharray="" stroke-dashoffset="0" font-family="none" font-weight="none" font-size="none" text-anchor="none" style="mix-blend-mode: normal; fill: rgb(0, 87, 118);"><g data-paper-data="{&quot;isGlobalGroup&quot;:true,&quot;bounds&quot;:{&quot;x&quot;:65.00000000000001,&quot;y&quot;:196.29927113231054,&quot;width&quot;:420,&quot;height&quot;:77.40145773537893}}" style="fill: rgb(0, 87, 118);"><g data-paper-data="{&quot;isSecondaryText&quot;:true}" fill-rule="nonzero" style="fill: rgb(0, 87, 118);"><path d="M180.29953,262.33073l0.26715,2.63809c-1.06859,0.36733 -2.41547,0.55099 -4.04062,0.55099c-1.91456,0 -3.26422,-0.44525 -4.04896,-1.33574c-0.78475,-0.89049 -1.17712,-2.43216 -1.17712,-4.625c0,-2.19284 0.39237,-3.73451 1.17712,-4.625c0.78475,-0.89049 2.1344,-1.33574 4.04896,-1.33574c1.43592,0 2.69931,0.15027 3.79017,0.45081l-0.26715,2.63809c-1.55836,-0.02226 -2.7327,-0.03339 -3.52302,-0.03339c-0.56769,0 -0.94615,0.19201 -1.13538,0.57604c-0.18923,0.38403 -0.28384,1.16043 -0.28384,2.3292c0,1.16877 0.09461,1.94517 0.28384,2.3292c0.18923,0.38403 0.56769,0.57604 1.13538,0.57604c1.65855,0 2.91637,-0.04452 3.77347,-0.13357z" data-paper-data="{&quot;glyphName&quot;:&quot;C&quot;,&quot;glyphIndex&quot;:0,&quot;firstGlyphOfWord&quot;:true,&quot;word&quot;:1}" style="fill: rgb(0, 87, 118);"/><path d="M194.84981,253.56493c1.36913,0 2.42938,0.16975 3.18073,0.50925c0.75135,0.3395 1.30513,0.94058 1.66133,1.80325c0.3562,0.86267 0.5343,2.08988 0.5343,3.68164c0,1.59176 -0.1781,2.81897 -0.5343,3.68164c-0.3562,0.86267 -0.90997,1.46375 -1.66133,1.80325c-0.75135,0.3395 -1.8116,0.50925 -3.18073,0.50925c-1.358,0 -2.41268,-0.16975 -3.16404,-0.50925c-0.75135,-0.3395 -1.30513,-0.94058 -1.66133,-1.80325c-0.3562,-0.86267 -0.5343,-2.08988 -0.5343,-3.68164c0,-1.59176 0.1781,-2.81897 0.5343,-3.68164c0.3562,-0.86267 0.90997,-1.46375 1.66133,-1.80325c0.75135,-0.3395 1.80603,-0.50925 3.16404,-0.50925zM196.09372,256.91263c0,0 -0.05148,-0.10992 -0.15445,-0.32976c-0.10296,-0.21984 -0.46612,-0.32976 -1.08946,-0.32976c-0.62335,0 -1.03798,0.21984 -1.24391,0.65952c-0.20593,0.43968 -0.30889,1.32183 -0.30889,2.64644c0,1.32461 0.10296,2.20676 0.30889,2.64644c0.20593,0.43968 0.62056,0.65952 1.24391,0.65952c0.62335,0 1.03798,-0.21984 1.24391,-0.65952c0.20593,-0.43968 0.30889,-1.32183 0.30889,-2.64644c0,-1.32461 -0.10296,-2.20676 -0.30889,-2.64644z" data-paper-data="{&quot;glyphName&quot;:&quot;O&quot;,&quot;glyphIndex&quot;:1,&quot;word&quot;:1}" style="fill: rgb(0, 87, 118);"/><path d="M220.93581,253.79869v10.26851c0,0.83484 -0.41742,1.25226 -1.25226,1.25226h-1.38583c-0.34507,0 -0.60943,-0.07792 -0.7931,-0.23375c-0.18366,-0.15584 -0.38681,-0.42855 -0.60943,-0.81814l-2.50451,-3.95713c-0.27828,-0.5009 -0.5343,-1.15764 -0.76805,-1.97022h-0.11688c0.11131,0.77918 0.16697,1.48045 0.16697,2.10379v4.87545h-3.33935v-10.26851c0,-0.83484 0.41742,-1.25226 1.25226,-1.25226h1.38583c0.34507,0 0.60665,0.07792 0.78475,0.23375c0.1781,0.15584 0.38403,0.42855 0.61778,0.81814l2.40433,3.77347c0.30054,0.5343 0.59552,1.19104 0.88493,1.97022h0.11688c-0.10018,-0.82371 -0.15584,-1.51941 -0.16697,-2.0871v-4.70849z" data-paper-data="{&quot;glyphName&quot;:&quot;N&quot;,&quot;glyphIndex&quot;:2,&quot;word&quot;:1}" style="fill: rgb(0, 87, 118);"/><path d="M240.48583,256.50356h-3.22248v8.81589h-3.6232v-8.81589h-3.22248v-2.70488h10.06815z" data-paper-data="{&quot;glyphName&quot;:&quot;T&quot;,&quot;glyphIndex&quot;:3,&quot;word&quot;:1}" style="fill: rgb(0, 87, 118);"/><path d="M260.12439,265.31945h-3.79017l-0.75135,-3.42284c-0.06679,-0.31167 -0.16975,-0.52038 -0.30889,-0.62613c-0.13914,-0.10575 -0.36455,-0.15862 -0.67622,-0.15862h-1.11868v4.20758h-3.55641v-11.52077c1.13538,-0.11131 2.7661,-0.16697 4.89215,-0.16697c1.73646,0 2.98037,0.25602 3.73173,0.76805c0.75135,0.51203 1.12703,1.42479 1.12703,2.73827c0,1.66968 -0.77918,2.58243 -2.33755,2.73827v0.10018c1.04633,0.13357 1.67524,0.73466 1.88673,1.80325zM253.47908,258.55726h1.25226c0.52317,0 0.87101,-0.07792 1.04355,-0.23375c0.17253,-0.15584 0.2588,-0.47307 0.2588,-0.95172c0,-0.47864 -0.08627,-0.79588 -0.2588,-0.95172c-0.17253,-0.15584 -0.52038,-0.23375 -1.04355,-0.23375h-1.25226z" data-paper-data="{&quot;glyphName&quot;:&quot;R&quot;,&quot;glyphIndex&quot;:4,&quot;word&quot;:1}" style="fill: rgb(0, 87, 118);"/><path d="M274.54234,253.56493c1.36913,0 2.42938,0.16975 3.18073,0.50925c0.75135,0.3395 1.30513,0.94058 1.66133,1.80325c0.3562,0.86267 0.5343,2.08988 0.5343,3.68164c0,1.59176 -0.1781,2.81897 -0.5343,3.68164c-0.3562,0.86267 -0.90997,1.46375 -1.66133,1.80325c-0.75135,0.3395 -1.8116,0.50925 -3.18073,0.50925c-1.358,0 -2.41268,-0.16975 -3.16404,-0.50925c-0.75135,-0.3395 -1.30513,-0.94058 -1.66133,-1.80325c-0.3562,-0.86267 -0.5343,-2.08988 -0.5343,-3.68164c0,-1.59176 0.1781,-2.81897 0.5343,-3.68164c0.3562,-0.86267 0.90997,-1.46375 1.66133,-1.80325c0.75135,-0.3395 1.80603,-0.50925 3.16404,-0.50925zM275.78625,256.91263c0,0 -0.05148,-0.10992 -0.15445,-0.32976c-0.10296,-0.21984 -0.46612,-0.32976 -1.08946,-0.32976c-0.62335,0 -1.03798,0.21984 -1.24391,0.65952c-0.20593,0.43968 -0.30889,1.32183 -0.30889,2.64644c0,1.32461 0.10296,2.20676 0.30889,2.64644c0.20593,0.43968 0.62056,0.65952 1.24391,0.65952c0.62335,0 1.03798,-0.21984 1.24391,-0.65952c0.20593,-0.43968 0.30889,-1.32183 0.30889,-2.64644c0,-1.32461 -0.10296,-2.20676 -0.30889,-2.64644z" data-paper-data="{&quot;glyphName&quot;:&quot;O&quot;,&quot;glyphIndex&quot;:5,&quot;word&quot;:1}" style="fill: rgb(0, 87, 118);"/><path d="M293.2285,253.79869v8.04784c0,0.1781 0.064,0.3228 0.19201,0.43412c0.12801,0.11131 0.29776,0.16697 0.50925,0.16697h3.87365l0.16697,2.70488c-1.14651,0.15584 -3.02211,0.23375 -5.62681,0.23375c-0.82371,0 -1.48601,-0.2421 -1.98691,-0.72631c-0.5009,-0.48421 -0.75135,-1.1159 -0.75135,-1.89508v-8.96616z" data-paper-data="{&quot;glyphName&quot;:&quot;L&quot;,&quot;glyphIndex&quot;:6,&quot;word&quot;:1}" style="fill: rgb(0, 87, 118);"/><path d="M315.19979,262.61458l0.16697,2.5546c-1.11312,0.14471 -3.11116,0.21706 -5.99414,0.21706c-0.79031,0 -1.4387,-0.2421 -1.94517,-0.72631c-0.50647,-0.48421 -0.7597,-1.1159 -0.7597,-1.89508v-6.41156c0,-0.77918 0.25323,-1.41088 0.7597,-1.89508c0.50647,-0.48421 1.15486,-0.72631 1.94517,-0.72631c2.88297,0 4.88102,0.07235 5.99414,0.21706l-0.16697,2.5546h-4.22428c-0.21149,0 -0.37846,0.05566 -0.5009,0.16697c-0.12244,0.11131 -0.18366,0.25602 -0.18366,0.43412v1.11868h4.30776v2.40433h-4.30776v1.38583c0,0.1781 0.06122,0.3228 0.18366,0.43412c0.12244,0.11131 0.28941,0.16697 0.5009,0.16697z" data-paper-data="{&quot;glyphName&quot;:&quot;E&quot;,&quot;glyphIndex&quot;:7,&quot;lastGlyphOfWord&quot;:true,&quot;word&quot;:1}" style="fill: rgb(0, 87, 118);"/><path d="M334.32419,265.31945v-11.52077c1.95909,-0.11131 3.60094,-0.16697 4.92555,-0.16697c1.36913,0 2.42938,0.16975 3.18073,0.50925c0.75135,0.3395 1.30513,0.93502 1.66133,1.78655c0.3562,0.85153 0.5343,2.06205 0.5343,3.63155c0,1.5695 -0.1781,2.78001 -0.5343,3.63155c-0.3562,0.85153 -0.90997,1.44705 -1.66133,1.78655c-0.75135,0.3395 -1.8116,0.50925 -3.18073,0.50925c-1.66968,0 -3.31152,-0.05566 -4.92555,-0.16697zM337.94739,262.84833l1.30235,0.0167c0.62335,0 1.03798,-0.21984 1.24391,-0.65952c0.20593,-0.43968 0.30889,-1.32183 0.30889,-2.64644c0,-1.32461 -0.10296,-2.20676 -0.30889,-2.64644c-0.20593,-0.43968 -0.62056,-0.65952 -1.24391,-0.65952h-1.30235z" data-paper-data="{&quot;glyphName&quot;:&quot;D&quot;,&quot;glyphIndex&quot;:8,&quot;firstGlyphOfWord&quot;:true,&quot;word&quot;:2}" style="fill: rgb(0, 87, 118);"/><path d="M362.76099,262.61458l0.16697,2.5546c-1.11312,0.14471 -3.11116,0.21706 -5.99414,0.21706c-0.79031,0 -1.4387,-0.2421 -1.94517,-0.72631c-0.50647,-0.48421 -0.7597,-1.1159 -0.7597,-1.89508v-6.41156c0,-0.77918 0.25323,-1.41088 0.7597,-1.89508c0.50647,-0.48421 1.15486,-0.72631 1.94517,-0.72631c2.88297,0 4.88102,0.07235 5.99414,0.21706l-0.16697,2.5546h-4.22428c-0.21149,0 -0.37846,0.05566 -0.5009,0.16697c-0.12244,0.11131 -0.18366,0.25602 -0.18366,0.43412v1.11868h4.30776v2.40433h-4.30776v1.38583c0,0.1781 0.06122,0.3228 0.18366,0.43412c0.12244,0.11131 0.28941,0.16697 0.5009,0.16697z" data-paper-data="{&quot;glyphName&quot;:&quot;E&quot;,&quot;glyphIndex&quot;:9,&quot;lastGlyphOfWord&quot;:true,&quot;word&quot;:2}" style="fill: rgb(0, 87, 118);"/><path d="M389.90845,256.50356h-4.02392c-0.22262,0 -0.39794,0.05566 -0.52595,0.16697c-0.12801,0.11131 -0.19201,0.25602 -0.19201,0.43412v1.35244h4.1241v2.40433h-4.1241v4.45804h-3.6232v-8.96616c0,-0.77918 0.25602,-1.41088 0.76805,-1.89508c0.51203,-0.48421 1.16877,-0.72631 1.97022,-0.72631c2.80506,0 4.73632,0.07792 5.79378,0.23375z" data-paper-data="{&quot;glyphName&quot;:&quot;F&quot;,&quot;glyphIndex&quot;:10,&quot;firstGlyphOfWord&quot;:true,&quot;word&quot;:3}" style="fill: rgb(0, 87, 118);"/><path d="M409.52277,265.31945h-3.79017l-0.75135,-3.42284c-0.06679,-0.31167 -0.16975,-0.52038 -0.30889,-0.62613c-0.13914,-0.10575 -0.36455,-0.15862 -0.67622,-0.15862h-1.11868v4.20758h-3.55641v-11.52077c1.13538,-0.11131 2.7661,-0.16697 4.89215,-0.16697c1.73646,0 2.98037,0.25602 3.73173,0.76805c0.75135,0.51203 1.12703,1.42479 1.12703,2.73827c0,1.66968 -0.77918,2.58243 -2.33755,2.73827v0.10018c1.04633,0.13357 1.67524,0.73466 1.88673,1.80325zM402.87746,258.55726h1.25226c0.52317,0 0.87101,-0.07792 1.04355,-0.23375c0.17253,-0.15584 0.2588,-0.47307 0.2588,-0.95172c0,-0.47864 -0.08627,-0.79588 -0.2588,-0.95172c-0.17253,-0.15584 -0.52038,-0.23375 -1.04355,-0.23375h-1.25226z" data-paper-data="{&quot;glyphName&quot;:&quot;R&quot;,&quot;glyphIndex&quot;:11,&quot;word&quot;:3}" style="fill: rgb(0, 87, 118);"/><path d="M423.94072,253.56493c1.36913,0 2.42938,0.16975 3.18073,0.50925c0.75135,0.3395 1.30513,0.94058 1.66133,1.80325c0.3562,0.86267 0.5343,2.08988 0.5343,3.68164c0,1.59176 -0.1781,2.81897 -0.5343,3.68164c-0.3562,0.86267 -0.90997,1.46375 -1.66133,1.80325c-0.75135,0.3395 -1.8116,0.50925 -3.18073,0.50925c-1.358,0 -2.41268,-0.16975 -3.16404,-0.50925c-0.75135,-0.3395 -1.30513,-0.94058 -1.66133,-1.80325c-0.3562,-0.86267 -0.5343,-2.08988 -0.5343,-3.68164c0,-1.59176 0.1781,-2.81897 0.5343,-3.68164c0.3562,-0.86267 0.90997,-1.46375 1.66133,-1.80325c0.75135,-0.3395 1.80603,-0.50925 3.16404,-0.50925zM425.18463,256.91263c0,0 -0.05148,-0.10992 -0.15445,-0.32976c-0.10296,-0.21984 -0.46612,-0.32976 -1.08946,-0.32976c-0.62335,0 -1.03798,0.21984 -1.24391,0.65952c-0.20593,0.43968 -0.30889,1.32183 -0.30889,2.64644c0,1.32461 0.10296,2.20676 0.30889,2.64644c0.20593,0.43968 0.62056,0.65952 1.24391,0.65952c0.62335,0 1.03798,-0.21984 1.24391,-0.65952c0.20593,-0.43968 0.30889,-1.32183 0.30889,-2.64644c0,-1.32461 -0.10296,-2.20676 -0.30889,-2.64644z" data-paper-data="{&quot;glyphName&quot;:&quot;O&quot;,&quot;glyphIndex&quot;:12,&quot;word&quot;:3}" style="fill: rgb(0, 87, 118);"/><path d="M448.35415,256.50356h-3.22248v8.81589h-3.6232v-8.81589h-3.22248v-2.70488h10.06815z" data-paper-data="{&quot;glyphName&quot;:&quot;T&quot;,&quot;glyphIndex&quot;:13,&quot;word&quot;:3}" style="fill: rgb(0, 87, 118);"/><path d="M462.81888,262.83163h-3.15569l-0.58439,2.48782h-3.68998l2.98872,-10.58575c0.07792,-0.27828 0.22819,-0.50369 0.45081,-0.67622c0.22262,-0.17253 0.47864,-0.2588 0.76805,-0.2588h3.28926c0.28941,0 0.54543,0.08627 0.76805,0.2588c0.22262,0.17253 0.37289,0.39794 0.45081,0.67622l2.98872,10.58575h-3.68998zM462.23449,260.29373l-0.56769,-2.47112c-0.10018,-0.52317 -0.16697,-0.96285 -0.20036,-1.31904h-0.45081c-0.06679,0.52317 -0.13357,0.96285 -0.20036,1.31904l-0.56769,2.47112z" data-paper-data="{&quot;glyphName&quot;:&quot;A&quot;,&quot;glyphIndex&quot;:14,&quot;word&quot;:3}" style="fill: rgb(0, 87, 118);"/><path d="M480.59205,261.42911l-2.28746,-1.00181c-0.93502,-0.41185 -1.59732,-0.88215 -1.98691,-1.41088c-0.38959,-0.52873 -0.58439,-1.21608 -0.58439,-2.06205c0,-1.29122 0.35063,-2.17893 1.0519,-2.66313c0.70126,-0.48421 1.93126,-0.72631 3.68998,-0.72631c1.68081,0 3.07777,0.1948 4.19089,0.58439l-0.21706,2.32085c-1.33574,-0.02226 -2.68818,-0.03339 -4.05731,-0.03339c-0.42298,0 -0.70683,0.02783 -0.85153,0.08348c-0.14471,0.05566 -0.21706,0.17253 -0.21706,0.35063c0,0.15584 0.06957,0.28663 0.20871,0.39237c0.13914,0.10575 0.40351,0.23654 0.7931,0.39237l2.0871,0.86823c0.94615,0.41185 1.61402,0.88493 2.00361,1.41922c0.38959,0.5343 0.58439,1.22999 0.58439,2.0871c0,1.30235 -0.3395,2.2151 -1.0185,2.73827c-0.679,0.52317 -1.909,0.78475 -3.68998,0.78475c-1.50271,0 -2.98872,-0.18923 -4.45804,-0.56769l0.21706,-2.53791c2.20397,0.05566 3.60094,0.08348 4.19089,0.08348c0.45638,0 0.7597,-0.02783 0.90997,-0.08348c0.15027,-0.05566 0.22541,-0.1614 0.22541,-0.31724c0,-0.15584 -0.05287,-0.28384 -0.15862,-0.38403c-0.10575,-0.10018 -0.31446,-0.20593 -0.62613,-0.31724z" data-paper-data="{&quot;glyphName&quot;:&quot;S&quot;,&quot;glyphIndex&quot;:15,&quot;lastGlyphOfWord&quot;:true,&quot;word&quot;:3}" style="fill: rgb(0, 87, 118);"/></g><g data-paper-data="{&quot;isPrimaryText&quot;:true}" fill-rule="nonzero" style="fill: rgb(0, 87, 118);"><path d="M171.29998,243.48112h5.75647v-16.39222h11.73223l14.03481,16.39222h7.56564l-14.03481,-16.39222h4.22141c5.42753,0 9.81341,-4.38588 9.81341,-9.81341v-3.01529c0,-5.42753 -4.38588,-9.81341 -9.81341,-9.81341h-29.27575v5.75647h29.27575c3.78282,0 4.05694,3.07012 4.05694,5.04376c0,3.61835 -0.98682,6.08541 -4.05694,6.08541h-29.27575z" data-paper-data="{&quot;glyphName&quot;:&quot;R&quot;,&quot;glyphIndex&quot;:0,&quot;firstGlyphOfWord&quot;:true,&quot;word&quot;:1}" style="fill: rgb(0, 87, 118);"/><path d="M225.84935,232.84536h17.48869l4.55035,10.63576h6.24988l-16.66634,-39.03433h-6.24988l9.64893,22.6421h-12.55458l2.46706,-5.75647h-6.24988l-9.48446,22.14869h6.24988z" data-paper-data="{&quot;glyphName&quot;:&quot;A&quot;,&quot;glyphIndex&quot;:1,&quot;word&quot;:1}" style="fill: rgb(0, 87, 118);"/><path d="M292.13095,233.66771c0,2.19294 -1.864,4.05694 -4.05694,4.05694h-29.27575v5.75647h29.27575c5.42753,0 9.81341,-4.38588 9.81341,-9.81341v-3.01529c0,-5.48235 -4.49553,-9.31999 -9.81341,-9.31999h-19.46234c-2.02847,0 -3.728,-1.58988 -4.00211,-3.56353h-5.81129c0.43859,5.20823 4.49553,9.31999 9.81341,9.31999h19.46234c2.13812,0 4.05694,1.26094 4.05694,3.56353zM268.61167,204.44679c-5.53717,0 -9.64893,4.38588 -9.81341,9.81341h5.75647c0.05482,-2.19294 1.80918,-4.05694 4.05694,-4.05694h68.25525v-5.75647zM320.20058,243.48112v-27.52139h-5.75647v27.52139z" data-paper-data="{&quot;glyphName&quot;:&quot;&quot;,&quot;glyphIndex&quot;:2,&quot;word&quot;:1}" style="fill: rgb(0, 87, 118);"/><path d="M342.34927,243.48112h5.75647v-16.39222h11.73223l14.03481,16.39222h7.56564l-14.03481,-16.39222h4.22141c5.42753,0 9.81341,-4.38588 9.81341,-9.81341v-3.01529c0,-5.42753 -4.38588,-9.81341 -9.81341,-9.81341h-29.27575v5.75647h29.27575c3.78282,0 4.05694,3.07012 4.05694,5.04376c0,3.61835 -0.98682,6.08541 -4.05694,6.08541h-29.27575z" data-paper-data="{&quot;glyphName&quot;:&quot;R&quot;,&quot;glyphIndex&quot;:3,&quot;word&quot;:1}" style="fill: rgb(0, 87, 118);"/><path d="M425.46169,237.72465h-33.33268v-10.63576h27.57622v-5.75647h-33.33268v22.14869h39.08915zM425.51651,204.44679h-39.14397v5.75647h39.14397z" data-paper-data="{&quot;glyphName&quot;:&quot;E&quot;,&quot;glyphIndex&quot;:4,&quot;word&quot;:1}" style="fill: rgb(0, 87, 118);"/><path d="M485,214.2602c0,-5.42753 -4.38588,-9.81341 -9.81341,-9.81341h-31.0301l4.87929,5.75647h26.15081c3.78282,0 4.05694,3.07012 4.05694,5.04376c0,3.61835 -0.98682,6.08541 -4.05694,6.08541h-16.61152l18.85928,22.14869h7.56564l-14.03481,-16.39222h4.22141c5.42753,0 9.81341,-4.38588 9.81341,-9.81341zM436.75533,243.48112v-30.15292c8.60729,10.0327 17.15975,20.12022 25.76704,30.15292h7.56564l-33.33268,-39.03433h-5.75647v39.03433zM442.40215,232.84536c1.58988,0 2.85082,-1.26094 2.85082,-2.85082c0,-1.6447 -1.37059,-2.90565 -2.90565,-2.90565c-1.53506,0 -2.85082,1.31576 -2.85082,2.85082c0,1.53506 1.26094,2.90565 2.90565,2.90565z" data-paper-data="{&quot;glyphName&quot;:&quot;&quot;,&quot;glyphIndex&quot;:5,&quot;lastGlyphOfWord&quot;:true,&quot;word&quot;:1}" style="fill: rgb(0, 87, 118);"/></g><g data-paper-data="{&quot;fillRule&quot;:&quot;evenodd&quot;,&quot;fillRuleOriginal&quot;:&quot;evenodd&quot;,&quot;isIcon&quot;:true,&quot;iconStyle&quot;:&quot;standalone&quot;,&quot;selectedEffects&quot;:{&quot;container&quot;:&quot;&quot;,&quot;transformation&quot;:&quot;&quot;,&quot;pattern&quot;:&quot;&quot;},&quot;bounds&quot;:{&quot;x&quot;:65.00000000000001,&quot;y&quot;:196.29927113231054,&quot;width&quot;:77.40145773537888,&quot;height&quot;:77.40145773537893},&quot;iconType&quot;:&quot;icon&quot;,&quot;rawIconId&quot;:&quot;1574636&quot;,&quot;isDetailed&quot;:false,&quot;suitableAsStandaloneIcon&quot;:true}" fill-rule="evenodd" style="fill: rgb(0, 87, 118);"><path d="M82.73751,261.60675c0,6.66814 5.42294,12.09398 12.09108,12.09398c6.67104,0 12.09688,-5.42584 12.09688,-12.09398v-5.64353h23.38201c6.66814,0 12.09398,-5.42681 12.09398,-12.09398c0,-6.67104 -5.42584,-12.09398 -12.09398,-12.09398h-23.38201v-11.28804h5.6445c6.66717,0 12.09398,-5.42294 12.09398,-12.09398c0,-6.67104 -5.42681,-12.09398 -12.09398,-12.09398c-6.67104,0 -12.09398,5.42971 -12.09398,12.09398v5.64353h-23.38201c-6.67104,0 -12.09398,5.42294 -12.09398,12.09398c0,6.67104 5.42294,12.09398 12.09398,12.09398h23.38201v11.28804h-5.6445c-6.67104,0.0029 -12.09398,5.42971 -12.09398,12.09398zM112.56997,214.03678h-5.6445v-5.64353c0,-3.11154 2.532,-5.64353 5.6445,-5.64353c3.11154,0 5.64353,2.532 5.64353,5.64353c0,3.11154 -2.532,5.64353 -5.64353,5.64353zM71.45044,226.13076c0,-3.11154 2.532,-5.64353 5.64353,-5.64353h23.38201v11.28804h-23.38201c-3.11154,0 -5.64353,-2.532 -5.64353,-5.6445zM130.30748,249.51277h-23.38201v-11.28804h23.38201c3.11154,0 5.64353,2.532 5.64353,5.6445c0,3.11154 -2.532,5.64353 -5.64353,5.64353zM89.18796,261.60675c0,-3.10864 2.532,-5.64063 5.64353,-5.64353h5.6445v5.64353c0,3.11154 -2.532,5.64353 -5.6474,5.64353c-3.11154,0 -5.64063,-2.532 -5.64063,-5.64353z" data-paper-data="{&quot;isPathIcon&quot;:true}" style="fill: rgb(0, 87, 118);"/></g></g></g></svg>