<svg xmlns="http://www.w3.org/2000/svg" class="svg-twitter-avatar" viewBox="65 200.75740500505597 68.48518998988806 68.48518998988808" preserveAspectRatio="xMidYMid meet"><g data-paper-data="{&quot;isIcon&quot;:&quot;true&quot;,&quot;iconType&quot;:&quot;icon&quot;,&quot;rawIconId&quot;:&quot;1574636&quot;,&quot;selectedEffects&quot;:{&quot;container&quot;:&quot;&quot;,&quot;transformation&quot;:&quot;&quot;,&quot;pattern&quot;:&quot;&quot;},&quot;isDetailed&quot;:false,&quot;fillRule&quot;:&quot;evenodd&quot;,&quot;bounds&quot;:{&quot;x&quot;:65,&quot;y&quot;:200.75740500505597,&quot;width&quot;:68.48518998988806,&quot;height&quot;:68.48518998988808},&quot;iconStyle&quot;:&quot;standalone&quot;,&quot;suitableAsStandaloneIcon&quot;:true}" fill-rule="evenodd" style="fill: rgb(16, 24, 32);"><path d="M80.69424,258.54178c0,5.9 4.79824,10.70081 10.69824,10.70081c5.90257,0 10.70338,-4.80081 10.70338,-10.70081v-4.99343h20.68852c5.9,0 10.70081,-4.80167 10.70081,-10.70081c0,-5.90257 -4.80081,-10.70081 -10.70081,-10.70081h-20.68852v-9.98771h4.99428c5.89914,0 10.70081,-4.79824 10.70081,-10.70081c0,-5.90257 -4.80167,-10.70081 -10.70081,-10.70081c-5.90257,0 -10.70081,4.80424 -10.70081,10.70081v4.99343h-20.68852c-5.90257,0 -10.70081,4.79824 -10.70081,10.70081c0,5.90257 4.79824,10.70081 10.70081,10.70081h20.68852v9.98771h-4.99428c-5.90257,0.00257 -10.70081,4.80424 -10.70081,10.70081zM107.09014,216.45164h-4.99428v-4.99343c0,-2.7531 2.24032,-4.99343 4.99428,-4.99343c2.7531,0 4.99343,2.24032 4.99343,4.99343c0,2.7531 -2.24032,4.99343 -4.99343,4.99343zM70.70738,227.15245c0,-2.7531 2.24032,-4.99343 4.99343,-4.99343h20.68852v9.98771h-20.68852c-2.7531,0 -4.99343,-2.24032 -4.99343,-4.99428zM122.78438,247.84097h-20.68852v-9.98771h20.68852c2.7531,0 4.99343,2.24032 4.99343,4.99428c0,2.7531 -2.24032,4.99343 -4.99343,4.99343zM86.40162,258.54178c0,-2.75054 2.24032,-4.99086 4.99343,-4.99343h4.99428v4.99343c0,2.7531 -2.24032,4.99343 -4.99685,4.99343c-2.7531,0 -4.99086,-2.24032 -4.99086,-4.99343z" data-paper-data="{&quot;isPathIcon&quot;:true}" style="fill: rgb(16, 24, 32);"/></g></svg>